<svg xmlns="http://www.w3.org/2000/svg" xmlns:xlink="http://www.w3.org/1999/xlink" viewBox="0 0 720.36 162.34"><defs><style>.cls-1{fill:#170636;}.cls-2{fill:url(#linear-gradient);}.cls-3{isolation:isolate;}</style><linearGradient id="linear-gradient" x1="15.11" y1="-42.26" x2="226.19" y2="174.66" gradientUnits="userSpaceOnUse"><stop offset="0" stop-color="#81feef"/><stop offset="0.45" stop-color="#3d3dff"/><stop offset="1" stop-color="#170636"/></linearGradient></defs><g id="Layer_2" data-name="Layer 2"><g id="Layer_1-2" data-name="Layer 1"><rect class="cls-1" x="63.61" y="63.61" width="39.23" height="39.23" transform="translate(-34.47 83.23) rotate(-45)"/><rect class="cls-1" x="8.13" y="8.13" width="39.23" height="39.23" transform="translate(-11.49 27.74) rotate(-45)"/><rect class="cls-1" x="119.1" y="8.13" width="39.23" height="39.23" transform="translate(21.01 106.21) rotate(-45)"/><polygon class="cls-2" points="138.71 55.48 83.23 55.48 27.74 0 83.23 0 138.71 55.48"/><path class="cls-1" d="M196.45,27.5h67.64V41.6H238.27v68.82h-16V41.6H196.45Z"/><path class="cls-1" d="M286.18,49.83A25.64,25.64,0,0,1,299,46.46V61.38q-9.82-.59-15.69,4.56t-5.86,13.92v30.56h-15.4V47.05h15.4v12.2A22.84,22.84,0,0,1,286.18,49.83Z"/><path class="cls-1" d="M345.7,110.42v-7.7a20.67,20.67,0,0,1-8.53,6.28,31.39,31.39,0,0,1-12,2.13,25.51,25.51,0,0,1-11.67-2.55,18.64,18.64,0,0,1-7.76-7,19.06,19.06,0,0,1-2.72-10.06q0-8.89,6.28-13.92t17.77-5.15h18.47V70.74a10.67,10.67,0,0,0-3.67-8.65Q338.23,59,331.25,59q-9,0-18.83,5.92l-5.57-10.66a71,71,0,0,1,13.56-6,49.93,49.93,0,0,1,14.28-1.83q12.31,0,19.13,5.92T360.75,69l.11,41.46Zm-5.45-14.27Q345,93,345.58,88.39V82.7h-16q-6.15,0-9.06,1.84c-1.93,1.22-2.9,3.22-2.9,6a7.71,7.71,0,0,0,3,6.4c2,1.58,4.76,2.37,8.23,2.37A20.14,20.14,0,0,0,340.25,96.15Z"/><path class="cls-1" d="M426.49,53q6.27,6.57,6.27,17.83v39.56H417.25V75.36q0-6.63-3.79-10.48T403.15,61q-7.69.12-12.14,5.22t-4.44,13v31.15h-15.4V47.05h15.4V58.89q6.51-12.2,22.74-12.43Q420.22,46.46,426.49,53Z"/><path class="cls-1" d="M476.41,60a30.41,30.41,0,0,0-9.06-1.54,12.21,12.21,0,0,0-6.22,1.36A4.55,4.55,0,0,0,458.82,64a5,5,0,0,0,2.9,4.56,47.17,47.17,0,0,0,9.18,3.37,89.46,89.46,0,0,1,10.9,4,20.57,20.57,0,0,1,7.41,5.81q3.14,3.84,3.13,10.12,0,9.24-7.1,14.22t-17.89,5A45.35,45.35,0,0,1,453,108.7a33.83,33.83,0,0,1-11.85-6.57l5.33-10.78a31.22,31.22,0,0,0,10.19,5.74,33.9,33.9,0,0,0,11.25,2.08,13.57,13.57,0,0,0,6.81-1.48,4.83,4.83,0,0,0,2.55-4.45,5.37,5.37,0,0,0-3-5,52,52,0,0,0-9.59-3.67,83,83,0,0,1-10.43-3.73,19,19,0,0,1-7-5.57,15.29,15.29,0,0,1-3-9.77q0-9.36,6.81-14.28t17.12-4.91a44.26,44.26,0,0,1,12.38,1.77,38.58,38.58,0,0,1,10.83,5L486,64.22A46,46,0,0,0,476.41,60Z"/><path class="cls-1" d="M525.45,37.1c-1.54,1.34-2.31,3.36-2.31,6v6.51H539V60.91H523.14v49.51h-15.4V60.91h-8.29V49.65h8.29v-6a22,22,0,0,1,3.08-11.9,19.53,19.53,0,0,1,8.23-7.4,25.42,25.42,0,0,1,11.2-2.49,26.68,26.68,0,0,1,11.61,2.72L539.13,37a22.2,22.2,0,0,0-7.82-1.9A8.6,8.6,0,0,0,525.45,37.1Z"/><path class="cls-1" d="M595.57,55.22q7.65,8.66,7.64,24.28,0,3.09-.12,4.62H556.31a17.64,17.64,0,0,0,18.12,14.45,24.17,24.17,0,0,0,9.3-1.83,22.93,22.93,0,0,0,7.76-5.27l8.29,8.64a32.09,32.09,0,0,1-11.55,8.06,39,39,0,0,1-15.1,2.84A35.18,35.18,0,0,1,556,107a28,28,0,0,1-11.43-11.31,34,34,0,0,1-4-16.76,34,34,0,0,1,4.09-16.82,29,29,0,0,1,11.43-11.43,33.81,33.81,0,0,1,16.7-4.09Q587.93,46.57,595.57,55.22Zm-6.45,18.6q-.24-7-4.62-11.14c-2.93-2.76-6.79-4.14-11.61-4.14a16.34,16.34,0,0,0-11.31,4.08A18.08,18.08,0,0,0,556,73.82Z"/><path class="cls-1" d="M637.86,49.83a25.61,25.61,0,0,1,12.85-3.37V61.38q-9.83-.59-15.69,4.56t-5.87,13.92v30.56H613.76V47.05h15.39v12.2A22.93,22.93,0,0,1,637.86,49.83Z"/><path class="cls-1" d="M704.43,50.6a29.29,29.29,0,0,1,11.73,11.31,33,33,0,0,1,4.2,16.76,33.49,33.49,0,0,1-4.2,16.94A29,29,0,0,1,704.43,107a36.16,36.16,0,0,1-17.35,4,36.72,36.72,0,0,1-17.53-4,28.83,28.83,0,0,1-11.79-11.37,33.5,33.5,0,0,1-4.21-16.94,33,33,0,0,1,4.21-16.76A29.07,29.07,0,0,1,669.55,50.6a36.84,36.84,0,0,1,17.53-4A36.27,36.27,0,0,1,704.43,50.6ZM674.05,65.05q-5,5.34-5,13.86t5,13.86a17,17,0,0,0,13,5.33,16.73,16.73,0,0,0,12.79-5.33q5-5.33,5-13.86t-5-13.86a16.73,16.73,0,0,0-12.79-5.33A17,17,0,0,0,674.05,65.05Z"/><g id="CRYPTO" class="cls-3"><g class="cls-3"><path d="M204,160.72a11.92,11.92,0,0,1-4.63-4.47,13.1,13.1,0,0,1,0-12.8A11.85,11.85,0,0,1,204,139a13.52,13.52,0,0,1,6.64-1.63,13.83,13.83,0,0,1,5.23,1,10.62,10.62,0,0,1,4,2.85l-2.26,2.19a9.12,9.12,0,0,0-6.88-2.89,10,10,0,0,0-4.92,1.22,8.75,8.75,0,0,0-3.43,3.37,9.89,9.89,0,0,0,0,9.59,8.79,8.79,0,0,0,3.43,3.36,9.92,9.92,0,0,0,4.92,1.22,9.11,9.11,0,0,0,6.88-2.93l2.26,2.2a10.75,10.75,0,0,1-4.06,2.86,13.6,13.6,0,0,1-5.25,1A13.46,13.46,0,0,1,204,160.72Z"/><path d="M244.7,162.06l-5.27-7.5c-.65.05-1.16.07-1.54.07h-6v7.43h-3.49V137.64h9.52a11.26,11.26,0,0,1,7.47,2.27,7.69,7.69,0,0,1,2.72,6.24,8.12,8.12,0,0,1-1.4,4.82,7.77,7.77,0,0,1-4,2.89l5.79,8.2Zm-1.85-11.83a5.63,5.63,0,0,0,0-8.14,7.88,7.88,0,0,0-5.06-1.41h-5.93v11h5.93A7.77,7.77,0,0,0,242.85,150.23Z"/><path d="M266.22,153.62v8.44h-3.45v-8.51l-9.7-15.91h3.73l7.82,12.87,7.85-12.87h3.45Z"/><path d="M299.5,139.91a8.51,8.51,0,0,1,0,12.49,11.28,11.28,0,0,1-7.46,2.26h-6v7.4h-3.5V137.64H292A11.23,11.23,0,0,1,299.5,139.91ZM297,150.22a5.6,5.6,0,0,0,0-8.13,7.88,7.88,0,0,0-5.06-1.41H286v10.95h5.92A7.88,7.88,0,0,0,297,150.22Z"/><path d="M314.93,140.68h-8.38v-3h20.2v3h-8.37v21.38h-3.45Z"/><path d="M338.05,160.72a12.06,12.06,0,0,1-4.65-4.48,12.91,12.91,0,0,1,0-12.77,11.92,11.92,0,0,1,4.65-4.48,14.38,14.38,0,0,1,13.3,0,11.85,11.85,0,0,1,4.64,4.46,13.1,13.1,0,0,1,0,12.8,11.94,11.94,0,0,1-4.64,4.47,14.46,14.46,0,0,1-13.3,0Zm11.5-2.71a9,9,0,0,0,3.39-3.36,10,10,0,0,0,0-9.59,8.92,8.92,0,0,0-3.39-3.37,9.63,9.63,0,0,0-4.83-1.22,9.86,9.86,0,0,0-4.87,1.22,8.77,8.77,0,0,0-3.41,3.37,9.89,9.89,0,0,0,0,9.59,8.81,8.81,0,0,0,3.41,3.36,9.76,9.76,0,0,0,4.87,1.22A9.53,9.53,0,0,0,349.55,158Z"/></g></g></g></g></svg>